# xmcd
#
# Track frame offsets: 
#        150
#        23348
#        40276
#        60205
#        74342
#        88948
#        103687
#        119278
#        137894
#        152573
#        169273
#        190407
#        218564
#        244683
#        268508
#        288479
#        307121
#        324993
#        342984
#
# Disc length: 4793 seconds
#
# Revision: 0
# Processed by: cddbd v1.4PL0 Copyright (c) Steve Scherf et al.
# Submitted via: ExactAudioCopy v0.90a11
#
DISCID=1112b713
DTITLE=Feiticeira 11 - Feiticeira 11
DYEAR=1900
DGENRE=
TTITLE0=Superstar-Grenada[Remix]
TTITLE1=Alone-Lasgo-Remix
TTITLE2=Scream For More-Kate Ryan[Remix]
TTITLE3=Derb-Derb-Remix
TTITLE4=My Book Was Stoled-Charlie Jackson[Remix]
TTITLE5=My Name-MP3
TTITLE6=New Beat-MP4
TTITLE7=Get Down-Gabry Ponte[REmix]
TTITLE8=Techono Beat-MP4
TTITLE9=Halloween-MP4
TTITLE10=You're Not Alone-ATB Feat Olive[Remix]
TTITLE11=Will I-Ian Van Dahl-Remix
TTITLE12=Where I You Now-Diana Fox[Remix]
TTITLE13=Without Me-Eminem[Remix]
TTITLE14=Shake Your Body-Shy FX[Remix]
TTITLE15=I See Right-DJ Encore Feat Angelina[Remix]
TTITLE16=Reason-Ian Van Dahl[Remix]
TTITLE17=Don't Belong To You-Lasgo-Remix
TTITLE18=Get Over You-Sophie Ellis Baxtor[Remix]
EXTD=
EXTT0=
EXTT1=
EXTT2=
EXTT3=
EXTT4=
EXTT5=
EXTT6=
EXTT7=
EXTT8=
EXTT9=
EXTT10=
EXTT11=
EXTT12=
EXTT13=
EXTT14=
EXTT15=
EXTT16=
EXTT17=
EXTT18=
PLAYORDER=
